<mxfile host="app.diagrams.net" modified="2023-03-17T01:00:44.369Z" agent="5.0 (Windows NT 10.0; Win64; x64) AppleWebKit/537.36 (KHTML, like Gecko) Chrome/110.0.0.0 Safari/537.36 OPR/96.0.0.0" etag="eW51hhfwPsVNF8dSHbVp" version="21.0.6" type="github">
  <diagram id="R2lEEEUBdFMjLlhIrx00" name="Page-1">
    <mxGraphModel dx="3383" dy="1378" grid="1" gridSize="10" guides="1" tooltips="1" connect="1" arrows="1" fold="1" page="1" pageScale="1" pageWidth="850" pageHeight="1100" math="0" shadow="0" extFonts="Permanent Marker^https://fonts.googleapis.com/css?family=Permanent+Marker">
      <root>
        <mxCell id="0" />
        <mxCell id="1" parent="0" />
        <mxCell id="5bg0Oknhp_1cdMqfzyep-85" value="" style="rounded=1;whiteSpace=wrap;html=1;" vertex="1" parent="1">
          <mxGeometry x="150" y="130" width="120" height="60" as="geometry" />
        </mxCell>
        <mxCell id="5bg0Oknhp_1cdMqfzyep-88" value="" style="edgeStyle=orthogonalEdgeStyle;rounded=0;orthogonalLoop=1;jettySize=auto;html=1;" edge="1" parent="1" source="5bg0Oknhp_1cdMqfzyep-86" target="5bg0Oknhp_1cdMqfzyep-87">
          <mxGeometry relative="1" as="geometry" />
        </mxCell>
        <mxCell id="5bg0Oknhp_1cdMqfzyep-86" value="Empregados" style="rounded=1;whiteSpace=wrap;html=1;" vertex="1" parent="1">
          <mxGeometry x="150" y="130" width="120" height="60" as="geometry" />
        </mxCell>
        <mxCell id="5bg0Oknhp_1cdMqfzyep-90" value="" style="edgeStyle=orthogonalEdgeStyle;rounded=0;orthogonalLoop=1;jettySize=auto;html=1;" edge="1" parent="1" source="5bg0Oknhp_1cdMqfzyep-87" target="5bg0Oknhp_1cdMqfzyep-89">
          <mxGeometry relative="1" as="geometry" />
        </mxCell>
        <mxCell id="5bg0Oknhp_1cdMqfzyep-87" value="Nome_Empregado" style="whiteSpace=wrap;html=1;rounded=1;" vertex="1" parent="1">
          <mxGeometry x="150" y="200" width="120" height="60" as="geometry" />
        </mxCell>
        <mxCell id="5bg0Oknhp_1cdMqfzyep-92" value="" style="edgeStyle=orthogonalEdgeStyle;rounded=0;orthogonalLoop=1;jettySize=auto;html=1;" edge="1" parent="1" source="5bg0Oknhp_1cdMqfzyep-89" target="5bg0Oknhp_1cdMqfzyep-91">
          <mxGeometry relative="1" as="geometry" />
        </mxCell>
        <mxCell id="5bg0Oknhp_1cdMqfzyep-89" value="Num_Departamento" style="whiteSpace=wrap;html=1;rounded=1;" vertex="1" parent="1">
          <mxGeometry x="150" y="270" width="120" height="60" as="geometry" />
        </mxCell>
        <mxCell id="5bg0Oknhp_1cdMqfzyep-94" value="" style="edgeStyle=orthogonalEdgeStyle;rounded=0;orthogonalLoop=1;jettySize=auto;html=1;" edge="1" parent="1" source="5bg0Oknhp_1cdMqfzyep-91" target="5bg0Oknhp_1cdMqfzyep-93">
          <mxGeometry relative="1" as="geometry" />
        </mxCell>
        <mxCell id="5bg0Oknhp_1cdMqfzyep-91" value="Nome_Departamento" style="whiteSpace=wrap;html=1;rounded=1;" vertex="1" parent="1">
          <mxGeometry x="150" y="340" width="120" height="60" as="geometry" />
        </mxCell>
        <mxCell id="5bg0Oknhp_1cdMqfzyep-96" value="" style="edgeStyle=orthogonalEdgeStyle;rounded=0;orthogonalLoop=1;jettySize=auto;html=1;" edge="1" parent="1" source="5bg0Oknhp_1cdMqfzyep-93" target="5bg0Oknhp_1cdMqfzyep-95">
          <mxGeometry relative="1" as="geometry" />
        </mxCell>
        <mxCell id="5bg0Oknhp_1cdMqfzyep-93" value="Num_Gerente" style="whiteSpace=wrap;html=1;rounded=1;" vertex="1" parent="1">
          <mxGeometry x="150" y="410" width="120" height="60" as="geometry" />
        </mxCell>
        <mxCell id="5bg0Oknhp_1cdMqfzyep-95" value="Nome_Gerente" style="whiteSpace=wrap;html=1;rounded=1;" vertex="1" parent="1">
          <mxGeometry x="150" y="480" width="120" height="60" as="geometry" />
        </mxCell>
        <mxCell id="5bg0Oknhp_1cdMqfzyep-110" value="" style="edgeStyle=orthogonalEdgeStyle;rounded=0;orthogonalLoop=1;jettySize=auto;html=1;" edge="1" parent="1" source="5bg0Oknhp_1cdMqfzyep-97" target="5bg0Oknhp_1cdMqfzyep-109">
          <mxGeometry relative="1" as="geometry" />
        </mxCell>
        <mxCell id="5bg0Oknhp_1cdMqfzyep-97" value="Projeto" style="whiteSpace=wrap;html=1;rounded=1;" vertex="1" parent="1">
          <mxGeometry x="350" y="130" width="120" height="60" as="geometry" />
        </mxCell>
        <mxCell id="5bg0Oknhp_1cdMqfzyep-102" value="" style="edgeStyle=orthogonalEdgeStyle;rounded=0;orthogonalLoop=1;jettySize=auto;html=1;" edge="1" parent="1" source="5bg0Oknhp_1cdMqfzyep-99" target="5bg0Oknhp_1cdMqfzyep-101">
          <mxGeometry relative="1" as="geometry" />
        </mxCell>
        <mxCell id="5bg0Oknhp_1cdMqfzyep-99" value="Detalhes Projeto" style="whiteSpace=wrap;html=1;rounded=1;" vertex="1" parent="1">
          <mxGeometry x="550" y="130" width="120" height="60" as="geometry" />
        </mxCell>
        <mxCell id="5bg0Oknhp_1cdMqfzyep-104" value="" style="edgeStyle=orthogonalEdgeStyle;rounded=0;orthogonalLoop=1;jettySize=auto;html=1;" edge="1" parent="1" source="5bg0Oknhp_1cdMqfzyep-101" target="5bg0Oknhp_1cdMqfzyep-103">
          <mxGeometry relative="1" as="geometry" />
        </mxCell>
        <mxCell id="5bg0Oknhp_1cdMqfzyep-101" value="Num_Projeto" style="whiteSpace=wrap;html=1;rounded=1;" vertex="1" parent="1">
          <mxGeometry x="550" y="200" width="120" height="60" as="geometry" />
        </mxCell>
        <mxCell id="5bg0Oknhp_1cdMqfzyep-106" value="" style="edgeStyle=orthogonalEdgeStyle;rounded=0;orthogonalLoop=1;jettySize=auto;html=1;" edge="1" parent="1" source="5bg0Oknhp_1cdMqfzyep-103" target="5bg0Oknhp_1cdMqfzyep-105">
          <mxGeometry relative="1" as="geometry" />
        </mxCell>
        <mxCell id="5bg0Oknhp_1cdMqfzyep-103" value="Nome_Projeto" style="whiteSpace=wrap;html=1;rounded=1;" vertex="1" parent="1">
          <mxGeometry x="550" y="270" width="120" height="60" as="geometry" />
        </mxCell>
        <mxCell id="5bg0Oknhp_1cdMqfzyep-108" value="" style="edgeStyle=orthogonalEdgeStyle;rounded=0;orthogonalLoop=1;jettySize=auto;html=1;" edge="1" parent="1" source="5bg0Oknhp_1cdMqfzyep-105" target="5bg0Oknhp_1cdMqfzyep-107">
          <mxGeometry relative="1" as="geometry" />
        </mxCell>
        <mxCell id="5bg0Oknhp_1cdMqfzyep-105" value="Dia_Inicio_Projeto&lt;br&gt;" style="whiteSpace=wrap;html=1;rounded=1;" vertex="1" parent="1">
          <mxGeometry x="550" y="340" width="120" height="60" as="geometry" />
        </mxCell>
        <mxCell id="5bg0Oknhp_1cdMqfzyep-107" value="Horas_Trabalhadas" style="whiteSpace=wrap;html=1;rounded=1;" vertex="1" parent="1">
          <mxGeometry x="550" y="410" width="120" height="60" as="geometry" />
        </mxCell>
        <mxCell id="5bg0Oknhp_1cdMqfzyep-112" value="" style="edgeStyle=orthogonalEdgeStyle;rounded=0;orthogonalLoop=1;jettySize=auto;html=1;" edge="1" parent="1" source="5bg0Oknhp_1cdMqfzyep-109" target="5bg0Oknhp_1cdMqfzyep-111">
          <mxGeometry relative="1" as="geometry" />
        </mxCell>
        <mxCell id="5bg0Oknhp_1cdMqfzyep-109" value="Num_Projeto" style="whiteSpace=wrap;html=1;rounded=1;" vertex="1" parent="1">
          <mxGeometry x="350" y="200" width="120" height="60" as="geometry" />
        </mxCell>
        <mxCell id="5bg0Oknhp_1cdMqfzyep-111" value="Num_Empregado" style="whiteSpace=wrap;html=1;rounded=1;" vertex="1" parent="1">
          <mxGeometry x="350" y="270" width="120" height="60" as="geometry" />
        </mxCell>
        <mxCell id="5bg0Oknhp_1cdMqfzyep-118" value="" style="rounded=1;whiteSpace=wrap;html=1;" vertex="1" parent="1">
          <mxGeometry x="-340" y="130" width="120" height="60" as="geometry" />
        </mxCell>
        <mxCell id="5bg0Oknhp_1cdMqfzyep-119" value="" style="edgeStyle=orthogonalEdgeStyle;rounded=0;orthogonalLoop=1;jettySize=auto;html=1;" edge="1" parent="1" source="5bg0Oknhp_1cdMqfzyep-120" target="5bg0Oknhp_1cdMqfzyep-122">
          <mxGeometry relative="1" as="geometry" />
        </mxCell>
        <mxCell id="5bg0Oknhp_1cdMqfzyep-120" value="Empregados" style="rounded=1;whiteSpace=wrap;html=1;" vertex="1" parent="1">
          <mxGeometry x="-340" y="130" width="120" height="60" as="geometry" />
        </mxCell>
        <mxCell id="5bg0Oknhp_1cdMqfzyep-121" value="" style="edgeStyle=orthogonalEdgeStyle;rounded=0;orthogonalLoop=1;jettySize=auto;html=1;" edge="1" parent="1" source="5bg0Oknhp_1cdMqfzyep-122" target="5bg0Oknhp_1cdMqfzyep-124">
          <mxGeometry relative="1" as="geometry" />
        </mxCell>
        <mxCell id="5bg0Oknhp_1cdMqfzyep-122" value="Nome_Empregado" style="whiteSpace=wrap;html=1;rounded=1;" vertex="1" parent="1">
          <mxGeometry x="-340" y="200" width="120" height="60" as="geometry" />
        </mxCell>
        <mxCell id="5bg0Oknhp_1cdMqfzyep-123" value="" style="edgeStyle=orthogonalEdgeStyle;rounded=0;orthogonalLoop=1;jettySize=auto;html=1;" edge="1" parent="1" source="5bg0Oknhp_1cdMqfzyep-124" target="5bg0Oknhp_1cdMqfzyep-126">
          <mxGeometry relative="1" as="geometry" />
        </mxCell>
        <mxCell id="5bg0Oknhp_1cdMqfzyep-124" value="Num_Departamento" style="whiteSpace=wrap;html=1;rounded=1;" vertex="1" parent="1">
          <mxGeometry x="-340" y="270" width="120" height="60" as="geometry" />
        </mxCell>
        <mxCell id="5bg0Oknhp_1cdMqfzyep-125" value="" style="edgeStyle=orthogonalEdgeStyle;rounded=0;orthogonalLoop=1;jettySize=auto;html=1;" edge="1" parent="1" source="5bg0Oknhp_1cdMqfzyep-126" target="5bg0Oknhp_1cdMqfzyep-128">
          <mxGeometry relative="1" as="geometry" />
        </mxCell>
        <mxCell id="5bg0Oknhp_1cdMqfzyep-126" value="Nome_Departamento" style="whiteSpace=wrap;html=1;rounded=1;" vertex="1" parent="1">
          <mxGeometry x="-340" y="340" width="120" height="60" as="geometry" />
        </mxCell>
        <mxCell id="5bg0Oknhp_1cdMqfzyep-127" value="" style="edgeStyle=orthogonalEdgeStyle;rounded=0;orthogonalLoop=1;jettySize=auto;html=1;" edge="1" parent="1" source="5bg0Oknhp_1cdMqfzyep-128" target="5bg0Oknhp_1cdMqfzyep-129">
          <mxGeometry relative="1" as="geometry" />
        </mxCell>
        <mxCell id="5bg0Oknhp_1cdMqfzyep-128" value="Num_Gerente" style="whiteSpace=wrap;html=1;rounded=1;" vertex="1" parent="1">
          <mxGeometry x="-340" y="410" width="120" height="60" as="geometry" />
        </mxCell>
        <mxCell id="5bg0Oknhp_1cdMqfzyep-129" value="Nome_Gerente" style="whiteSpace=wrap;html=1;rounded=1;" vertex="1" parent="1">
          <mxGeometry x="-340" y="480" width="120" height="60" as="geometry" />
        </mxCell>
        <mxCell id="5bg0Oknhp_1cdMqfzyep-130" value="" style="edgeStyle=orthogonalEdgeStyle;rounded=0;orthogonalLoop=1;jettySize=auto;html=1;" edge="1" parent="1" source="5bg0Oknhp_1cdMqfzyep-131" target="5bg0Oknhp_1cdMqfzyep-142">
          <mxGeometry relative="1" as="geometry" />
        </mxCell>
        <mxCell id="5bg0Oknhp_1cdMqfzyep-131" value="Projeto" style="whiteSpace=wrap;html=1;rounded=1;" vertex="1" parent="1">
          <mxGeometry x="-180" y="130" width="120" height="60" as="geometry" />
        </mxCell>
        <mxCell id="5bg0Oknhp_1cdMqfzyep-132" value="" style="edgeStyle=orthogonalEdgeStyle;rounded=0;orthogonalLoop=1;jettySize=auto;html=1;exitX=0.5;exitY=1;exitDx=0;exitDy=0;" edge="1" parent="1" source="5bg0Oknhp_1cdMqfzyep-143" target="5bg0Oknhp_1cdMqfzyep-135">
          <mxGeometry relative="1" as="geometry" />
        </mxCell>
        <mxCell id="5bg0Oknhp_1cdMqfzyep-134" value="" style="edgeStyle=orthogonalEdgeStyle;rounded=0;orthogonalLoop=1;jettySize=auto;html=1;" edge="1" parent="1" source="5bg0Oknhp_1cdMqfzyep-135" target="5bg0Oknhp_1cdMqfzyep-137">
          <mxGeometry relative="1" as="geometry" />
        </mxCell>
        <mxCell id="5bg0Oknhp_1cdMqfzyep-135" value="Num_Projeto" style="whiteSpace=wrap;html=1;rounded=1;" vertex="1" parent="1">
          <mxGeometry x="-180" y="340" width="120" height="60" as="geometry" />
        </mxCell>
        <mxCell id="5bg0Oknhp_1cdMqfzyep-136" value="" style="edgeStyle=orthogonalEdgeStyle;rounded=0;orthogonalLoop=1;jettySize=auto;html=1;" edge="1" parent="1" source="5bg0Oknhp_1cdMqfzyep-137" target="5bg0Oknhp_1cdMqfzyep-139">
          <mxGeometry relative="1" as="geometry" />
        </mxCell>
        <mxCell id="5bg0Oknhp_1cdMqfzyep-137" value="Nome_Projeto" style="whiteSpace=wrap;html=1;rounded=1;" vertex="1" parent="1">
          <mxGeometry x="-180" y="410" width="120" height="60" as="geometry" />
        </mxCell>
        <mxCell id="5bg0Oknhp_1cdMqfzyep-138" value="" style="edgeStyle=orthogonalEdgeStyle;rounded=0;orthogonalLoop=1;jettySize=auto;html=1;" edge="1" parent="1" source="5bg0Oknhp_1cdMqfzyep-139" target="5bg0Oknhp_1cdMqfzyep-140">
          <mxGeometry relative="1" as="geometry" />
        </mxCell>
        <mxCell id="5bg0Oknhp_1cdMqfzyep-139" value="Dia_Inicio_Projeto&lt;br&gt;" style="whiteSpace=wrap;html=1;rounded=1;" vertex="1" parent="1">
          <mxGeometry x="-180" y="480" width="120" height="60" as="geometry" />
        </mxCell>
        <mxCell id="5bg0Oknhp_1cdMqfzyep-140" value="Horas_Trabalhadas" style="whiteSpace=wrap;html=1;rounded=1;" vertex="1" parent="1">
          <mxGeometry x="-180" y="550" width="120" height="60" as="geometry" />
        </mxCell>
        <mxCell id="5bg0Oknhp_1cdMqfzyep-141" value="" style="edgeStyle=orthogonalEdgeStyle;rounded=0;orthogonalLoop=1;jettySize=auto;html=1;" edge="1" parent="1" source="5bg0Oknhp_1cdMqfzyep-142" target="5bg0Oknhp_1cdMqfzyep-143">
          <mxGeometry relative="1" as="geometry" />
        </mxCell>
        <mxCell id="5bg0Oknhp_1cdMqfzyep-142" value="Num_Projeto" style="whiteSpace=wrap;html=1;rounded=1;" vertex="1" parent="1">
          <mxGeometry x="-180" y="200" width="120" height="60" as="geometry" />
        </mxCell>
        <mxCell id="5bg0Oknhp_1cdMqfzyep-143" value="Num_Empregado" style="whiteSpace=wrap;html=1;rounded=1;" vertex="1" parent="1">
          <mxGeometry x="-180" y="270" width="120" height="60" as="geometry" />
        </mxCell>
        <mxCell id="5bg0Oknhp_1cdMqfzyep-144" value="1ª Forma Normal" style="text;strokeColor=none;fillColor=none;html=1;fontSize=24;fontStyle=1;verticalAlign=middle;align=center;" vertex="1" parent="1">
          <mxGeometry x="-260" y="60" width="100" height="40" as="geometry" />
        </mxCell>
        <mxCell id="5bg0Oknhp_1cdMqfzyep-145" value="2ª Forma Normal" style="text;strokeColor=none;fillColor=none;html=1;fontSize=24;fontStyle=1;verticalAlign=middle;align=center;" vertex="1" parent="1">
          <mxGeometry x="360" y="50" width="100" height="40" as="geometry" />
        </mxCell>
        <mxCell id="5bg0Oknhp_1cdMqfzyep-146" value="" style="rounded=1;whiteSpace=wrap;html=1;" vertex="1" parent="1">
          <mxGeometry x="1140" y="135" width="120" height="60" as="geometry" />
        </mxCell>
        <mxCell id="5bg0Oknhp_1cdMqfzyep-147" value="" style="edgeStyle=orthogonalEdgeStyle;rounded=0;orthogonalLoop=1;jettySize=auto;html=1;" edge="1" parent="1" source="5bg0Oknhp_1cdMqfzyep-148" target="5bg0Oknhp_1cdMqfzyep-150">
          <mxGeometry relative="1" as="geometry" />
        </mxCell>
        <mxCell id="5bg0Oknhp_1cdMqfzyep-148" value="Empregados" style="rounded=1;whiteSpace=wrap;html=1;" vertex="1" parent="1">
          <mxGeometry x="1140" y="135" width="120" height="60" as="geometry" />
        </mxCell>
        <mxCell id="5bg0Oknhp_1cdMqfzyep-149" value="" style="edgeStyle=orthogonalEdgeStyle;rounded=0;orthogonalLoop=1;jettySize=auto;html=1;" edge="1" parent="1" source="5bg0Oknhp_1cdMqfzyep-150">
          <mxGeometry relative="1" as="geometry">
            <mxPoint x="1200" y="275" as="targetPoint" />
          </mxGeometry>
        </mxCell>
        <mxCell id="5bg0Oknhp_1cdMqfzyep-150" value="Nome_Empregado" style="whiteSpace=wrap;html=1;rounded=1;" vertex="1" parent="1">
          <mxGeometry x="1140" y="205" width="120" height="60" as="geometry" />
        </mxCell>
        <mxCell id="5bg0Oknhp_1cdMqfzyep-186" style="edgeStyle=orthogonalEdgeStyle;rounded=0;orthogonalLoop=1;jettySize=auto;html=1;exitX=0.5;exitY=1;exitDx=0;exitDy=0;entryX=0.5;entryY=0;entryDx=0;entryDy=0;" edge="1" parent="1" source="5bg0Oknhp_1cdMqfzyep-154" target="5bg0Oknhp_1cdMqfzyep-179">
          <mxGeometry relative="1" as="geometry" />
        </mxCell>
        <mxCell id="5bg0Oknhp_1cdMqfzyep-154" value="Nome_Departamento" style="whiteSpace=wrap;html=1;rounded=1;" vertex="1" parent="1">
          <mxGeometry x="940" y="280" width="120" height="60" as="geometry" />
        </mxCell>
        <mxCell id="5bg0Oknhp_1cdMqfzyep-155" value="" style="edgeStyle=orthogonalEdgeStyle;rounded=0;orthogonalLoop=1;jettySize=auto;html=1;" edge="1" parent="1" target="5bg0Oknhp_1cdMqfzyep-157">
          <mxGeometry relative="1" as="geometry">
            <mxPoint x="1200" y="475" as="sourcePoint" />
          </mxGeometry>
        </mxCell>
        <mxCell id="5bg0Oknhp_1cdMqfzyep-158" value="" style="edgeStyle=orthogonalEdgeStyle;rounded=0;orthogonalLoop=1;jettySize=auto;html=1;" edge="1" parent="1" source="5bg0Oknhp_1cdMqfzyep-159" target="5bg0Oknhp_1cdMqfzyep-170">
          <mxGeometry relative="1" as="geometry" />
        </mxCell>
        <mxCell id="5bg0Oknhp_1cdMqfzyep-159" value="Projeto" style="whiteSpace=wrap;html=1;rounded=1;" vertex="1" parent="1">
          <mxGeometry x="1340" y="135" width="120" height="60" as="geometry" />
        </mxCell>
        <mxCell id="5bg0Oknhp_1cdMqfzyep-160" value="" style="edgeStyle=orthogonalEdgeStyle;rounded=0;orthogonalLoop=1;jettySize=auto;html=1;" edge="1" parent="1" source="5bg0Oknhp_1cdMqfzyep-161" target="5bg0Oknhp_1cdMqfzyep-163">
          <mxGeometry relative="1" as="geometry" />
        </mxCell>
        <mxCell id="5bg0Oknhp_1cdMqfzyep-161" value="Detalhes Projeto" style="whiteSpace=wrap;html=1;rounded=1;" vertex="1" parent="1">
          <mxGeometry x="1540" y="135" width="120" height="60" as="geometry" />
        </mxCell>
        <mxCell id="5bg0Oknhp_1cdMqfzyep-162" value="" style="edgeStyle=orthogonalEdgeStyle;rounded=0;orthogonalLoop=1;jettySize=auto;html=1;" edge="1" parent="1" source="5bg0Oknhp_1cdMqfzyep-163" target="5bg0Oknhp_1cdMqfzyep-165">
          <mxGeometry relative="1" as="geometry" />
        </mxCell>
        <mxCell id="5bg0Oknhp_1cdMqfzyep-163" value="Num_Projeto" style="whiteSpace=wrap;html=1;rounded=1;" vertex="1" parent="1">
          <mxGeometry x="1540" y="205" width="120" height="60" as="geometry" />
        </mxCell>
        <mxCell id="5bg0Oknhp_1cdMqfzyep-164" value="" style="edgeStyle=orthogonalEdgeStyle;rounded=0;orthogonalLoop=1;jettySize=auto;html=1;" edge="1" parent="1" source="5bg0Oknhp_1cdMqfzyep-165" target="5bg0Oknhp_1cdMqfzyep-167">
          <mxGeometry relative="1" as="geometry" />
        </mxCell>
        <mxCell id="5bg0Oknhp_1cdMqfzyep-165" value="Nome_Projeto" style="whiteSpace=wrap;html=1;rounded=1;" vertex="1" parent="1">
          <mxGeometry x="1540" y="275" width="120" height="60" as="geometry" />
        </mxCell>
        <mxCell id="5bg0Oknhp_1cdMqfzyep-166" value="" style="edgeStyle=orthogonalEdgeStyle;rounded=0;orthogonalLoop=1;jettySize=auto;html=1;" edge="1" parent="1" source="5bg0Oknhp_1cdMqfzyep-167" target="5bg0Oknhp_1cdMqfzyep-168">
          <mxGeometry relative="1" as="geometry" />
        </mxCell>
        <mxCell id="5bg0Oknhp_1cdMqfzyep-167" value="Dia_Inicio_Projeto&lt;br&gt;" style="whiteSpace=wrap;html=1;rounded=1;" vertex="1" parent="1">
          <mxGeometry x="1540" y="345" width="120" height="60" as="geometry" />
        </mxCell>
        <mxCell id="5bg0Oknhp_1cdMqfzyep-168" value="Horas_Trabalhadas" style="whiteSpace=wrap;html=1;rounded=1;" vertex="1" parent="1">
          <mxGeometry x="1540" y="415" width="120" height="60" as="geometry" />
        </mxCell>
        <mxCell id="5bg0Oknhp_1cdMqfzyep-169" value="" style="edgeStyle=orthogonalEdgeStyle;rounded=0;orthogonalLoop=1;jettySize=auto;html=1;" edge="1" parent="1" source="5bg0Oknhp_1cdMqfzyep-170" target="5bg0Oknhp_1cdMqfzyep-171">
          <mxGeometry relative="1" as="geometry" />
        </mxCell>
        <mxCell id="5bg0Oknhp_1cdMqfzyep-170" value="Num_Projeto" style="whiteSpace=wrap;html=1;rounded=1;fillColor=#fff2cc;strokeColor=#d6b656;" vertex="1" parent="1">
          <mxGeometry x="1340" y="205" width="120" height="60" as="geometry" />
        </mxCell>
        <mxCell id="5bg0Oknhp_1cdMqfzyep-171" value="Num_Empregado" style="whiteSpace=wrap;html=1;rounded=1;fillColor=#fff2cc;strokeColor=#d6b656;" vertex="1" parent="1">
          <mxGeometry x="1340" y="275" width="120" height="60" as="geometry" />
        </mxCell>
        <mxCell id="5bg0Oknhp_1cdMqfzyep-172" value="3ª Forma Normal" style="text;strokeColor=none;fillColor=none;html=1;fontSize=24;fontStyle=1;verticalAlign=middle;align=center;" vertex="1" parent="1">
          <mxGeometry x="1250" y="60" width="100" height="40" as="geometry" />
        </mxCell>
        <mxCell id="5bg0Oknhp_1cdMqfzyep-177" style="edgeStyle=orthogonalEdgeStyle;rounded=0;orthogonalLoop=1;jettySize=auto;html=1;exitX=0.5;exitY=1;exitDx=0;exitDy=0;entryX=0.5;entryY=0;entryDx=0;entryDy=0;" edge="1" parent="1" source="5bg0Oknhp_1cdMqfzyep-173" target="5bg0Oknhp_1cdMqfzyep-176">
          <mxGeometry relative="1" as="geometry" />
        </mxCell>
        <mxCell id="5bg0Oknhp_1cdMqfzyep-173" value="Departamento" style="rounded=1;whiteSpace=wrap;html=1;" vertex="1" parent="1">
          <mxGeometry x="940" y="135" width="120" height="60" as="geometry" />
        </mxCell>
        <mxCell id="5bg0Oknhp_1cdMqfzyep-183" style="edgeStyle=orthogonalEdgeStyle;rounded=0;orthogonalLoop=1;jettySize=auto;html=1;exitX=0.5;exitY=1;exitDx=0;exitDy=0;entryX=0.5;entryY=0;entryDx=0;entryDy=0;" edge="1" parent="1" source="5bg0Oknhp_1cdMqfzyep-176" target="5bg0Oknhp_1cdMqfzyep-154">
          <mxGeometry relative="1" as="geometry" />
        </mxCell>
        <mxCell id="5bg0Oknhp_1cdMqfzyep-176" value="Num_Departamento" style="whiteSpace=wrap;html=1;rounded=1;fillColor=#fff2cc;strokeColor=#d6b656;" vertex="1" parent="1">
          <mxGeometry x="940" y="210" width="120" height="60" as="geometry" />
        </mxCell>
        <mxCell id="5bg0Oknhp_1cdMqfzyep-182" style="edgeStyle=orthogonalEdgeStyle;rounded=0;orthogonalLoop=1;jettySize=auto;html=1;exitX=0.5;exitY=1;exitDx=0;exitDy=0;entryX=0.5;entryY=0;entryDx=0;entryDy=0;" edge="1" parent="1" source="5bg0Oknhp_1cdMqfzyep-178" target="5bg0Oknhp_1cdMqfzyep-181">
          <mxGeometry relative="1" as="geometry" />
        </mxCell>
        <mxCell id="5bg0Oknhp_1cdMqfzyep-178" value="Num_Departamento" style="whiteSpace=wrap;html=1;rounded=1;fillColor=#fff2cc;strokeColor=#d6b656;" vertex="1" parent="1">
          <mxGeometry x="1140" y="275" width="120" height="60" as="geometry" />
        </mxCell>
        <mxCell id="5bg0Oknhp_1cdMqfzyep-187" style="edgeStyle=orthogonalEdgeStyle;rounded=0;orthogonalLoop=1;jettySize=auto;html=1;exitX=0.5;exitY=1;exitDx=0;exitDy=0;entryX=0.5;entryY=0;entryDx=0;entryDy=0;" edge="1" parent="1" source="5bg0Oknhp_1cdMqfzyep-179" target="5bg0Oknhp_1cdMqfzyep-180">
          <mxGeometry relative="1" as="geometry" />
        </mxCell>
        <mxCell id="5bg0Oknhp_1cdMqfzyep-179" value="Num_Gerente" style="whiteSpace=wrap;html=1;rounded=1;" vertex="1" parent="1">
          <mxGeometry x="940" y="350" width="120" height="60" as="geometry" />
        </mxCell>
        <mxCell id="5bg0Oknhp_1cdMqfzyep-185" style="edgeStyle=orthogonalEdgeStyle;rounded=0;orthogonalLoop=1;jettySize=auto;html=1;exitX=0.5;exitY=1;exitDx=0;exitDy=0;entryX=0.5;entryY=0;entryDx=0;entryDy=0;" edge="1" parent="1" source="5bg0Oknhp_1cdMqfzyep-180" target="5bg0Oknhp_1cdMqfzyep-184">
          <mxGeometry relative="1" as="geometry" />
        </mxCell>
        <mxCell id="5bg0Oknhp_1cdMqfzyep-180" value="Nome_Gerente" style="whiteSpace=wrap;html=1;rounded=1;" vertex="1" parent="1">
          <mxGeometry x="940" y="420" width="120" height="60" as="geometry" />
        </mxCell>
        <mxCell id="5bg0Oknhp_1cdMqfzyep-181" value="Num_Empregado" style="whiteSpace=wrap;html=1;rounded=1;fillColor=#fff2cc;strokeColor=#d6b656;" vertex="1" parent="1">
          <mxGeometry x="1140" y="345" width="120" height="60" as="geometry" />
        </mxCell>
        <mxCell id="5bg0Oknhp_1cdMqfzyep-184" value="Num_Empregado" style="whiteSpace=wrap;html=1;rounded=1;fillColor=#fff2cc;strokeColor=#d6b656;" vertex="1" parent="1">
          <mxGeometry x="940" y="490" width="120" height="60" as="geometry" />
        </mxCell>
        <mxCell id="5bg0Oknhp_1cdMqfzyep-188" value="" style="endArrow=none;html=1;rounded=0;strokeWidth=6;" edge="1" parent="1">
          <mxGeometry width="50" height="50" relative="1" as="geometry">
            <mxPoint y="723" as="sourcePoint" />
            <mxPoint y="10" as="targetPoint" />
          </mxGeometry>
        </mxCell>
        <mxCell id="5bg0Oknhp_1cdMqfzyep-189" value="" style="endArrow=none;html=1;rounded=0;strokeWidth=6;" edge="1" parent="1">
          <mxGeometry width="50" height="50" relative="1" as="geometry">
            <mxPoint x="850" y="723" as="sourcePoint" />
            <mxPoint x="850" y="10" as="targetPoint" />
          </mxGeometry>
        </mxCell>
      </root>
    </mxGraphModel>
  </diagram>
</mxfile>
